<?xml version="1.0" encoding="UTF-8" standalone="no"?>
<svg
   xmlns:dc="http://purl.org/dc/elements/1.1/"
   xmlns:cc="http://creativecommons.org/ns#"
   xmlns:rdf="http://www.w3.org/1999/02/22-rdf-syntax-ns#"
   xmlns:svg="http://www.w3.org/2000/svg"
   xmlns="http://www.w3.org/2000/svg"
   version="1.1"
   id="svg2"
   viewBox="0 0 78.000001 78.000001"
   height="78"
   width="78">
  <defs
     id="defs4" />
  <metadata
     id="metadata7">
    <rdf:RDF>
      <cc:Work
         rdf:about="">
        <dc:format>image/svg+xml</dc:format>
        <dc:type
           rdf:resource="http://purl.org/dc/dcmitype/StillImage" />
        <dc:title></dc:title>
      </cc:Work>
    </rdf:RDF>
  </metadata>
  <g
     transform="translate(0,-974.36216)"
     id="layer1">
    <path
       id="path3347"
       d="m 34.45981,1051.1678 c -12.61445,-2.9614 -23.62955,-13.2564 -27.9658595,-26.1377 -0.38788,-1.1522 -1.62455,-1.75 -3.6205001,-1.75 l -3.03137995,0 0,-7.5 0,-7.5 6.78759005,0 6.7875895,0 4.74938,-4.8219 c 3.35994,-3.4112 4.5568,-5.3237 4.09112,-6.53724 -0.78617,-2.04874 2.13313,-5.64087 4.58432,-5.64087 2.03533,0 5,3.0677 5,5.17375 0,2.31495 -3.59222,5.09046 -5.71595,4.41646 -1.33584,-0.424 -3.17261,0.7471 -6.52432,4.1598 -4.47602,4.5575 -4.67709,5.0134 -4.96239,11.25 -0.28649,6.2628 -0.3977,6.5116 -3.04734,6.8164 -3.3602895,0.3867 -3.3891895,0.9887 -0.33671,7.0125 3.05239,6.0236 9.65937,12.6675 15.58127,15.6684 3.48815,1.7675 13.62587,4.5027 16.6891,4.5027 0.17399,0 0.31634,0.45 0.31634,1 0,1.1935 -4.02542,1.1453 -9.38226,-0.1123 z M 9.8420705,1015.7801 c 0,-2 -0.5,-2.5 -2.5,-2.5 -2,0 -2.5,0.5 -2.5,2.5 0,2 0.5,2.5 2.5,2.5 2,0 2.5,-0.5 2.5,-2.5 z M 29.40138,997.18413 c 0.37254,-0.60278 -0.008,-1.78103 -0.84502,-2.61833 -1.82255,-1.82255 -3.71429,-0.91938 -3.71429,1.77331 0,2.12398 3.38151,2.75078 4.55931,0.84502 z m 17.20635,49.29887 c -2.30496,-6.4898 -8.54677,-15.9124 -13.4735,-20.3396 l -4.047,-3.6366 2.91881,-6.0815 c 2.61786,-5.4544 4.73108,-13.5572 6.36226,-24.39521 l 0.5644,-3.75 14.33964,0 14.33965,0 1.17038,8.00431 c 1.27383,8.7118 3.99594,17.5276 6.96689,22.563 l 1.88926,3.202 -5.45041,5.3654 c -5.10502,5.0253 -13.34604,18.9071 -13.34604,22.4811 0,0.7613 -0.675,1.3842 -1.5,1.3842 -1.27035,0 -1.5,-2.4309 -1.5,-15.878 0,-14.7455 0.14244,-15.9759 1.99704,-17.25 1.09837,-0.7546 2.27365,-2.8047 2.61174,-4.5557 0.49583,-2.568 0.11841,-3.68 -1.95158,-5.75 -3.23903,-3.239 -7.03381,-3.2806 -10.20266,-0.1118 -3.14384,3.1439 -3.12671,6.9642 0.0455,10.1364 2.45097,2.451 2.5,2.803 2.5,17.9546 0,11.7965 -0.29949,15.4545 -1.26528,15.4545 -0.69591,0 -2.03198,-2.1587 -2.96906,-4.7971 z m -7.76566,-67.17545 0,-5.02746 14.55479,0 14.55479,0 -0.30479,4.75 -0.30479,4.75 -14.25,0.27746 -14.25,0.27745 0,-5.02745 z"
       style="fill:#000000" />
  </g>
</svg>
